# xmcd
#
# Track frame offsets:
#	150
#	15047
#	31078
#	49063
#	62193
#	78011
#	94180
#	110951
#	123455
#	140709
#	152791
#	166680
#	183611
#	199882
#	218170
#	234467
#	248341
#	261176
#	276647
#
# Disc length: 3899 seconds
#
# Revision: 1
# Processed by: cddbd v1.5.1PL2 Copyright (c) Steve Scherf et al.
# Submitted via: EasyCDDAExtractor 6.2.0.3
#
DISCID=080f3913
DTITLE=Tommy Nolen - My Kind Of Music
DYEAR=2003
DGENRE=Country
TTITLE0=Honky Tonk Daddy
TTITLE1=Drifting Down The Track
TTITLE2=My Kind Of Music
TTITLE3=A Little Song
TTITLE4=Forklift Driver Blues
TTITLE5=Merle (You're Just My Hero Now)
TTITLE6=Go Away Blues
TTITLE7=No Matter How
TTITLE8=I'm A Lonesome Fool
TTITLE9=Mountain Guitar
TTITLE10=Way Back Blues
TTITLE11=John Wesley Hardin
TTITLE12=I'll Put My Sadness In The Bottle
TTITLE13=Lovesick Blues Boy
TTITLE14=He's Our Little Boy
TTITLE15=I'm Crying For You
TTITLE16=I'm Steppin' Out
TTITLE17=Blame It On Me
TTITLE18=To Her It's Beautiful Music
EXTD=
EXTT0=
EXTT1=
EXTT2=
EXTT3=
EXTT4=
EXTT5=
EXTT6=
EXTT7=
EXTT8=
EXTT9=
EXTT10=
EXTT11=
EXTT12=
EXTT13=
EXTT14=
EXTT15=
EXTT16=
EXTT17=
EXTT18=
PLAYORDER=
